<svg width="52" height="46" viewBox="0 0 52 46" fill="none" xmlns="http://www.w3.org/2000/svg">
<path d="M45.5 5.75H6.5C2.91037 5.75 0 8.32456 0 11.5V34.5C0 37.6754 2.91037 40.25 6.5 40.25H45.5C49.0896 40.25 52 37.6754 52 34.5V11.5C52 8.32456 49.0896 5.75 45.5 5.75ZM34.801 21.0936L48.5596 10.6633C48.6548 10.9328 48.75 11.2023 48.75 11.5V34.5C48.75 34.6994 48.6643 34.8763 48.6199 35.0643L34.801 21.0936ZM45.5 8.625C45.7158 8.625 45.9062 8.69804 46.1094 8.73452L26 23.9827L5.89062 8.73452C6.09375 8.69804 6.28418 8.625 6.5 8.625H45.5ZM3.37858 35.0615C3.33409 34.8734 3.25 34.6994 3.25 34.5V11.5C3.25 11.2023 3.34679 10.9328 3.44205 10.6633L17.1959 21.0908L3.37858 35.0615ZM6.5 37.375C6.17155 37.375 5.87316 37.2907 5.57324 37.2093L19.665 22.9634L24.9431 26.9643C25.2462 27.1974 25.6239 27.3125 26 27.3125C26.3761 27.3125 26.7538 27.1974 27.0569 26.9644L32.335 22.9635L46.4268 37.2094C46.1285 37.2907 45.8301 37.375 45.5 37.375H6.5Z" fill="white"/>
</svg>
