<svg width="47" height="46" viewBox="0 0 47 46" fill="none" xmlns="http://www.w3.org/2000/svg">
<path d="M23.6567 0.459961C14.2567 0.459961 7.98999 6.59329 7.98999 15.4866C7.98999 27.4466 19.27 42.32 22.2467 45.2333C22.4033 45.3866 22.7167 45.54 23.03 45.54C23.3433 45.54 23.6567 45.3866 23.8133 45.08C25.38 43.3933 38.8533 28.06 38.8533 15.4866C39.01 5.05996 31.3333 0.459961 23.6567 0.459961ZM23.03 42.6266C19.4267 38.4866 10.34 25.6066 10.34 15.4866C10.34 7.66663 15.51 2.75996 23.6567 2.75996C29.61 2.75996 36.66 6.13329 36.66 15.4866C36.66 24.5333 28.5133 36.4933 23.03 42.6266ZM23.5 9.35329C20.0533 9.35329 17.2333 12.1133 17.2333 15.4866C17.2333 18.86 20.0533 21.62 23.5 21.62C26.9467 21.62 29.7667 18.86 29.7667 15.4866C29.7667 12.1133 26.9467 9.35329 23.5 9.35329ZM23.5 19.32C21.3067 19.32 19.5833 17.6333 19.5833 15.4866C19.5833 13.34 21.3067 11.6533 23.5 11.6533C25.6933 11.6533 27.4167 13.34 27.4167 15.4866C27.4167 17.6333 25.6933 19.32 23.5 19.32Z" fill="white"/>
</svg>
